<svg width="323" height="74" viewBox="0 0 323 74" fill="none" xmlns="http://www.w3.org/2000/svg">
<path d="M83.7774 50.8605C83.458 45.6278 83.0894 41.439 82.6719 38.2944C85.4233 39.5227 87.8679 40.3825 90.0053 40.8739C92.167 41.3407 94.0586 41.5742 95.6802 41.5742C97.8175 41.5742 99.5127 41.2669 100.766 40.6528C102.043 40.0142 102.682 39.0805 102.682 37.8522C102.682 37.4346 102.62 37.0414 102.497 36.6728C102.375 36.2799 102.141 35.85 101.797 35.3832C101.454 34.8918 100.962 34.3636 100.323 33.7986L93.3953 27.7551C91.774 26.3793 90.6439 25.3843 90.0053 24.77C88.703 23.5173 87.6835 22.3503 86.9466 21.2694C86.234 20.1883 85.7059 19.0951 85.362 17.9897C85.0426 16.8596 84.8828 15.6681 84.8828 14.4152C84.8828 12.9165 85.1409 11.4547 85.6567 10.0299C86.1971 8.5804 86.9956 7.22923 88.0521 5.97629C89.1086 4.72337 90.5088 3.64241 92.2532 2.73342C93.9973 1.82444 95.8643 1.21027 97.8544 0.890911C99.8443 0.546954 101.896 0.375 104.008 0.375C108.16 0.375 112.68 0.854051 117.569 1.81215C117.643 3.50729 117.729 5.0673 117.828 6.4922C117.926 7.89254 118.159 10.3616 118.528 13.8991C116.267 12.9901 114.204 12.3637 112.337 12.0198C110.47 11.6512 108.861 11.467 107.509 11.467C105.593 11.467 103.996 11.8233 102.719 12.5356C101.466 13.2481 100.839 14.1325 100.839 15.189C100.839 15.6802 100.937 16.1593 101.134 16.6261C101.331 17.093 101.699 17.6457 102.24 18.2844C102.78 18.8987 103.492 19.5866 104.377 20.3481C105.261 21.085 106.649 22.1905 108.541 23.6646L111.194 25.7652C111.981 26.4039 112.828 27.1777 113.737 28.0867C114.646 28.9958 115.432 29.8925 116.095 30.7768C116.759 31.6612 117.262 32.472 117.606 33.2089C117.975 33.9461 118.245 34.6953 118.417 35.4568C118.589 36.194 118.675 36.9922 118.675 37.8522C118.675 40.0632 118.147 42.1759 117.09 44.1904C116.034 46.1805 114.535 47.8264 112.595 49.1284C110.654 50.406 108.517 51.3027 106.183 51.8185C103.873 52.3345 101.429 52.5923 98.8494 52.5923C94.8694 52.5923 89.8455 52.0152 83.7774 50.8605ZM161.975 40.5053C161.655 41.9794 161.041 45.5416 160.132 51.1921C157.282 51.7572 154.887 52.1258 152.946 52.2976C151.005 52.4941 149.04 52.5923 147.05 52.5923C144.126 52.5923 141.436 52.3835 138.98 51.966C136.523 51.573 134.398 50.8605 132.605 49.8286C130.836 48.7967 129.349 47.5194 128.146 45.9961C126.942 44.4484 126.021 42.6181 125.382 40.5053C124.768 38.3926 124.46 36.2183 124.46 33.9827C124.46 30.8381 125.087 27.7674 126.34 24.77C127.593 21.7483 129.202 19.3898 131.167 17.6947C133.157 15.9998 135.442 14.7958 138.022 14.0835C140.601 13.371 143.242 13.0147 145.945 13.0147C148.745 13.0147 151.411 13.3464 153.941 14.0097C156.496 14.6486 158.658 15.7787 160.427 17.4C162.196 19.0215 163.449 20.8516 164.186 22.8907C164.947 24.9298 165.328 27.1285 165.328 29.4869C165.328 30.8874 165.168 32.4474 164.849 34.1672L139.017 34.2038C138.992 34.597 138.98 34.9533 138.98 35.2726C138.98 37.9258 139.926 39.879 141.817 41.132C143.709 42.3847 146.018 43.0113 148.745 43.0113C150.367 43.0113 152.209 42.8269 154.273 42.4585C156.361 42.0653 158.928 41.4144 161.975 40.5053ZM139.311 28.5659H151.472C151.497 28.148 151.509 27.7918 151.509 27.4971C151.509 26.2197 151.275 25.1263 150.809 24.2173C150.367 23.3083 149.715 22.645 148.856 22.2274C148.02 21.8099 147.075 21.6011 146.018 21.6011C145.281 21.6011 144.569 21.7239 143.881 21.9694C143.193 22.1905 142.567 22.5344 142.001 23.0013C141.461 23.4435 141.007 23.9595 140.638 24.5489C140.27 25.1386 139.999 25.716 139.827 26.281C139.655 26.8215 139.483 27.583 139.311 28.5659ZM170.082 51.5974L170.745 43.6746L172.182 16.147L172.588 1.3331C176.002 1.38225 178.57 1.40682 180.289 1.40682C182.525 1.40682 184.994 1.38225 187.696 1.3331L186.849 12.6461L185.485 40.5053L185.19 51.6343C182.562 51.5851 180.191 51.5607 178.078 51.5607L170.082 51.5974ZM193.224 50.9341C193.126 49.8532 193.027 48.7231 192.929 47.5438C192.831 46.34 192.671 44.6941 192.45 42.6058L192.155 39.9526C194.538 40.8862 196.59 41.5865 198.309 42.053C200.029 42.4952 201.614 42.7163 203.063 42.7163C204.267 42.7163 205.237 42.6058 205.974 42.3847C206.736 42.1636 207.289 41.8442 207.633 41.4267C207.977 41.0091 208.149 40.5792 208.149 40.1368C208.149 39.7438 208.013 39.3629 207.743 38.9946C207.497 38.6014 206.92 38.0733 206.011 37.41C203.997 35.9359 202.215 34.597 200.668 33.3933C199.145 32.1893 197.99 31.1208 197.204 30.1872C196.442 29.2535 195.853 28.2463 195.435 27.1654C195.042 26.0846 194.845 24.9668 194.845 23.812C194.845 21.7729 195.423 19.869 196.577 18.1002C197.757 16.3314 199.476 15.0538 201.737 14.2677C204.021 13.4569 206.797 13.0517 210.065 13.0517C213.48 13.0517 217.84 13.4939 223.147 14.3782L223.736 24.7334C220.764 23.554 217.902 22.9646 215.15 22.9646C213.209 22.9646 211.797 23.1611 210.912 23.554C210.053 23.9472 209.622 24.5489 209.622 25.3597C209.622 25.6301 209.672 25.8878 209.77 26.1336C209.868 26.3793 210.04 26.6373 210.286 26.9074C210.556 27.1777 210.875 27.4601 211.244 27.7551C211.637 28.0252 212.571 28.6764 214.045 29.708C215.519 30.7399 216.673 31.5876 217.509 32.2509C218.884 33.3318 219.929 34.339 220.641 35.2726C221.378 36.1817 221.931 37.1643 222.299 38.2208C222.692 39.2524 222.889 40.3458 222.889 41.5003C222.889 43.2447 222.459 44.8537 221.599 46.3277C220.764 47.7772 219.486 48.9935 217.767 49.9761C216.071 50.9587 214.229 51.6343 212.239 52.0029C210.249 52.3958 208.198 52.5923 206.085 52.5923C204.66 52.5923 202.867 52.4697 200.705 52.224C198.567 51.9783 196.074 51.5484 193.224 50.9341ZM226.942 68.4751C226.181 62.6035 225.665 58.9554 225.395 57.5303C226.942 58.2675 228.306 58.771 229.485 59.0413C230.689 59.3116 231.721 59.4466 232.581 59.4466C233.49 59.4466 234.337 59.3237 235.123 59.0782C235.934 58.8325 236.573 58.5255 237.039 58.1569C237.506 57.813 238.01 57.2725 238.55 56.5354C239.115 55.7985 239.533 55.1598 239.803 54.6191C240.073 54.1033 240.344 53.3541 240.614 52.3712L233.686 31.4032L227.753 14.0097C231.414 14.0589 233.981 14.0835 235.455 14.0835C237.175 14.0835 239.521 14.0589 242.493 14.0097C242.96 15.9013 243.82 19.1688 245.073 23.812C246.35 28.4553 247.272 32.0911 247.837 34.7199C248.156 36.1693 248.463 38.0117 248.758 40.2473L249.532 37.2994C249.778 36.5133 250.06 35.6166 250.379 34.6094C250.699 33.6021 251.104 32.3981 251.595 30.9979L253.991 24.2912L257.971 14.0097C261.041 14.0589 263.364 14.0835 264.935 14.0835C266.311 14.0835 268.768 14.0589 272.304 14.0097L265.195 30.0766L252.333 59.8888C251.497 61.5595 250.699 62.8861 249.937 63.8687C249.225 64.7531 248.451 65.527 247.616 66.1903C246.829 66.8046 245.982 67.3204 245.073 67.7379C243.844 68.303 242.493 68.7452 241.019 69.0648C239.398 69.4087 237.752 69.5806 236.081 69.5806C235.32 69.5806 234.312 69.5193 233.06 69.3964C231.807 69.2982 230.787 69.1876 230.001 69.0648C229.239 68.9665 228.22 68.7698 226.942 68.4751ZM274.295 51.6343C275.008 46.0576 275.547 39.9036 275.917 33.1722C276.31 26.4162 276.543 20.0288 276.616 14.0097C279.566 14.0589 282.107 14.0835 284.245 14.0835C286.725 14.0835 289.109 14.0589 291.394 14.0097L291.027 19.0215C291.836 18.1125 292.536 17.4 293.125 16.8842C293.715 16.3437 294.44 15.8277 295.299 15.3365C296.185 14.8204 297.117 14.4029 298.1 14.0835C299.085 13.7642 300.154 13.5185 301.306 13.3464C302.485 13.1499 303.714 13.0517 304.992 13.0517C306.76 13.0517 308.481 13.2481 310.15 13.6413C311.848 14.0097 313.26 14.5503 314.389 15.2626C315.52 15.9505 316.466 16.8226 317.226 17.8791C317.988 18.911 318.491 20.0288 318.737 21.2325C318.983 22.4362 319.107 23.6769 319.107 24.9545C319.107 25.8878 319.007 27.9026 318.811 30.9979L318.184 44.3379C318.061 46.9667 318.001 49.3987 318.001 51.6343C315.52 51.5851 313.197 51.5607 311.036 51.5607C308.112 51.5607 305.448 51.5851 303.038 51.6343C303.26 49.3987 303.494 46.082 303.74 41.6847C303.986 37.2625 304.107 34.1548 304.107 32.3615C304.107 29.5854 303.567 27.6569 302.485 26.5757C301.429 25.4703 300.091 24.9175 298.469 24.9175C297.044 24.9175 295.692 25.3843 294.417 26.318C293.162 27.2513 292.193 28.6149 291.504 30.4083C290.817 32.177 290.325 35.1005 290.031 39.1788C289.762 43.257 289.576 47.4089 289.479 51.6343C287.021 51.5851 284.627 51.5607 282.293 51.5607C279.836 51.5607 277.169 51.5851 274.295 51.6343Z" fill="#2D2C46"/>
<path d="M4.82422 17.5996L19.5365 9.10547V26.0937L4.82422 17.5996Z" fill="#585570"/>
<path d="M19.9375 8.91992L34.6499 0.425781V17.4142L19.9375 8.91992Z" fill="#718FC8"/>
<path d="M49.5234 26.2871L64.2358 17.793V34.7812L49.5234 26.2871Z" fill="#0098DA"/>
<path d="M49.5234 43.6504L64.2358 35.1562V52.1445L49.5234 43.6504Z" fill="#52658C"/>
<path d="M34.7305 34.9668L49.4428 26.4727V43.4609L34.7305 34.9668Z" fill="#52658C"/>
<path d="M34.7305 52.3301L49.4428 43.8359V60.8242L34.7305 52.3301Z" fill="#52658C"/>
<path d="M4.82422 52.3301L19.5365 43.8359V60.8242L4.82422 52.3301Z" fill="#585570"/>
<path d="M19.6185 26.2871L4.90625 34.7812V17.793L19.6185 26.2871Z" fill="#52658C"/>
<path d="M34.4115 17.5996L19.6992 26.0938V9.10547L34.4115 17.5996Z" fill="#52658C"/>
<path d="M49.5209 8.9199L34.8086 17.4142V0.425781L49.5209 8.9199Z" fill="#0098DA"/>
<path d="M64.3178 17.5996L49.6055 26.0938V9.10547L64.3178 17.5996Z" fill="#718FC8"/>
<path d="M34.4115 34.9668L19.6992 43.4609V26.4727L34.4115 34.9668Z" fill="#0098DA"/>
<path d="M64.3178 34.9668L49.6055 43.4609V26.4727L64.3178 34.9668Z" fill="#718FC8"/>
<path d="M64.3178 52.3301L49.6055 60.824V43.8359L64.3178 52.3301Z" fill="#585570"/>
<path d="M49.2006 61.0137L34.4883 69.5078V52.5195L49.2006 61.0137Z" fill="#0098DA"/>
<path d="M19.6185 43.6504L4.90625 52.1445V35.1562L19.6185 43.6504Z" fill="#52658C"/>
<path d="M4.82422 34.9668L19.5365 26.4727V43.4609L4.82422 34.9668Z" fill="#718FC8"/>
<path d="M19.6172 61.0137L34.3295 52.5195V69.5078L19.6172 61.0137Z" fill="#718FC8"/>
<path d="M86.7327 68.8313V62.0923H88.5817V61.0859H83.7461V62.0923H85.595V68.8313H86.7327ZM101.51 68.8423V67.7921H98.3374V65.1775H101.368V64.149H98.3374V62.1033H101.499V61.0749H97.1997V68.8423H101.51ZM114.526 68.9956C115.336 68.9956 115.992 68.8423 116.518 68.5251V67.3436C116.189 67.6061 115.489 67.9561 114.581 67.9561C112.918 67.9561 111.704 66.6872 111.704 64.9805C111.704 63.2193 112.962 61.9501 114.57 61.9501C115.369 61.9501 116.069 62.2236 116.496 62.4971V61.2939C116.113 61.0969 115.456 60.9219 114.581 60.9219C112.349 60.9219 110.544 62.6176 110.544 64.9805C110.544 67.2779 112.295 68.9956 114.526 68.9956ZM126.782 68.8313V63.1645L131.891 68.8313H132.646V61.0859H131.508V66.6871L126.388 61.0859H125.644V68.8313H126.782ZM145.805 68.9956C148.048 68.9956 149.918 67.2669 149.918 64.9587C149.918 62.6503 148.048 60.9219 145.805 60.9219C143.562 60.9219 141.691 62.6503 141.691 64.9587C141.691 67.2669 143.606 68.9956 145.805 68.9956ZM145.805 67.9561C144.142 67.9561 142.851 66.6872 142.851 64.9587C142.851 63.2083 144.142 61.9611 145.805 61.9611C147.468 61.9611 148.759 63.2083 148.759 64.9587C148.759 66.6872 147.468 67.9561 145.805 67.9561ZM162.548 68.8423V67.8141H160.098V61.0749H158.96V68.8423H162.548ZM174.634 68.9956C176.876 68.9956 178.747 67.2669 178.747 64.9587C178.747 62.6503 176.876 60.9219 174.634 60.9219C172.391 60.9219 170.52 62.6503 170.52 64.9587C170.52 67.2669 172.435 68.9956 174.634 68.9956ZM174.634 67.9561C172.971 67.9561 171.68 66.6872 171.68 64.9587C171.68 63.2083 172.971 61.9611 174.634 61.9611C176.297 61.9611 177.588 63.2083 177.588 64.9587C177.588 66.6872 176.297 67.9561 174.634 67.9561ZM191.52 68.9956C193.817 68.9956 195.283 67.4421 195.283 65.09V64.882H192.088V65.8557H194.08V65.8667C193.97 67.1029 193.084 67.9781 191.52 67.9781C189.835 67.9781 188.653 66.6762 188.653 64.9805C188.653 63.1973 189.944 61.9501 191.64 61.9501C192.625 61.9501 193.336 62.3658 193.806 62.9785L194.681 62.3331C193.992 61.4251 193.018 60.9219 191.64 60.9219C189.353 60.9219 187.494 62.5848 187.494 64.9805C187.494 67.2669 189.211 68.9956 191.52 68.9956ZM205.462 68.8423V61.0749H204.324V68.8423H205.462ZM215.305 68.8313L216.027 67.1029H219.703L220.414 68.8313H221.617L218.291 61.0859H217.548L214.123 68.8313H215.305ZM217.909 62.6176L219.342 66.1074H216.421L217.909 62.6176Z" fill="#2D2C46"/>
</svg>
